<svg xmlns="http://www.w3.org/2000/svg" xmlns:xlink="http://www.w3.org/1999/xlink" version="1.1" width="256" height="256" viewBox="0 0 256 256" xml:space="preserve">

<defs>
</defs>
<g style="stroke: none; stroke-width: 0; stroke-dasharray: none; stroke-linecap: butt; stroke-linejoin: miter; stroke-miterlimit: 10; fill: none; fill-rule: nonzero; opacity: 1;" transform="translate(1.4065934065934016 1.4065934065934016) scale(2.81 2.81)" >
	<path d="M 16.075 88.313 L 1.687 73.925 c -2.25 -2.25 -2.25 -5.897 0 -8.147 l 64.09 -64.09 c 2.25 -2.25 5.897 -2.25 8.147 0 l 14.388 14.388 c 2.25 2.25 2.25 5.897 0 8.147 l -64.09 64.09 C 21.972 90.562 18.325 90.562 16.075 88.313 z" style="stroke: none; stroke-width: 1; stroke-dasharray: none; stroke-linecap: butt; stroke-linejoin: miter; stroke-miterlimit: 10; fill: rgb(236,0,0); fill-rule: nonzero; opacity: 1;" transform=" matrix(1 0 0 1 0 0) " stroke-linecap="round" />
	<path d="M 65.778 88.313 l -64.09 -64.09 c -2.25 -2.25 -2.25 -5.897 0 -8.147 L 16.075 1.687 c 2.25 -2.25 5.897 -2.25 8.147 0 l 64.09 64.09 c 2.25 2.25 2.25 5.897 0 8.147 L 73.925 88.313 C 71.675 90.562 68.028 90.562 65.778 88.313 z" style="stroke: none; stroke-width: 1; stroke-dasharray: none; stroke-linecap: butt; stroke-linejoin: miter; stroke-miterlimit: 10; fill: rgb(236,0,0); fill-rule: nonzero; opacity: 1;" transform=" matrix(1 0 0 1 0 0) " stroke-linecap="round" />
</g>
</svg>